# xmcd
#
# Track frame offsets: 
#        150
#        19772
#        44500
#        66657
#        80857
#        100737
#        109577
#        129237
#        160570
#        175030
#        200452
#        217880
#
# Disc length: 3174 seconds
#
# Revision: 4
# Processed by: cddbd v1.5.1PL0 Copyright (c) Steve Scherf et al.
# Submitted via: ExactAudioCopy v0.95a5
#
DISCID=9d0c640c
DTITLE=Sir Elwoodin hiljaiset värit - Pohjoisesta tuulee taas
DYEAR=2002
DGENRE=Jazz
TTITLE0=Mikä sua vaivaa (pikku Minna II)
TTITLE1=Kirje kotiin
TTITLE2=Kekkonen
TTITLE3=Tyttöjen päiväkirjat
TTITLE4=Torkkelinmäki
TTITLE5=Meidän pikku kuppila (osa 6)
TTITLE6=Sydän vanhanaikainen
TTITLE7=Muistojensa roskalaatikot
TTITLE8=Roskilde
TTITLE9=Johnny Ö.
TTITLE10=Tolstoi
TTITLE11=Lasinen vuori
EXTD=YEAR: 2002
EXTT0=
EXTT1=
EXTT2=
EXTT3=
EXTT4=
EXTT5=
EXTT6=
EXTT7=
EXTT8=
EXTT9=
EXTT10=
EXTT11=
PLAYORDER=
